# xmcd
# 
# Track frame offsets:
#     150
#     13303
#     30091
#     42171
#     57282
#     69377
#     83534
#     101833
#     114886
#     130893
#     140508
#     156673
#     178060
# 
# Disc length: 2525
# 
# Revision: 5
# Processed by: cddbd v1.5.2PL0 Copyright (c) Steve Scherf et al.
# Submitted via: fre:ac v1.0.31
# 
DISCID=a909db0d
DTITLE=Christmas - Emmylou Harris Light Of The Stable
DYEAR=2004
DGENRE=Christmas
TTITLE0=Christmas Time's A-Coming (Sharon and Cheryl White-harmony vcl_Ricky Skaggs-banjo_mandolin) 1979
TTITLE1=O Little Town Of Bethlehem (Sharon and Cheryl White-harmony vcl_Ricky Skaggs-mandolin-violins) 1979
TTITLE2=Away In A Manger (Nancy Ahern-duet vcl) 1979
TTITLE3=Angel Eyes (Willie Nelson_Ricky Skaggs-harmony vcl_Ricky Skaggs-mandolin) 1979
TTITLE4=The First Noel (Sharon and Cheryl White-harmony vcl) 1979
TTITLE5=Beautiful Star Of Bethlehem (Sharon and Cheryl White and Ricky Skaggs-harmony vcl_Skaggs-fiddles_ac gtr) 1979
TTITLE6=Little Drummer Boy (Sharon and Cheryl White-harmony vcl_Ricky Skaggs-mandolin) 1979
TTITLE7=There's A Light (Kate and Anna McGarrigle-harmony vcls_Kate_Harris-ac gtr_Kate-banjo_Anna-kybrd_accord_Ricky Skaggs-mandolin) 200
TTITLE8=Cherry Tree Carol (Kate and Anna McGarrigle-harmony vcls_Kate_Harris-ac gtr_Kate-banjo_Anna-kybrd_accord_Ricky Skaggs-mandolin) 2
TTITLE9=Golden Cradle 1979
TTITLE10=Silent Night (Sharon and Cheryl White-harmony vcl_Ricky Skaggs-violins_ac gtr) 1979
TTITLE11=Man Is An Island (Kate and Anna McGarrigle-harmony vcls_Kate_Harris-ac gtr_Kate-banjo_Anna-kybrd_accord_Ricky Skaggs-mandolin) 20
TTITLE12=Light Of The Stable (Young_Parton_Ronstadt_Harris-harmony vcl_James Burton-electric gtr_Harris-ac gtr) 1975 7'' w Bluebird Wine
EXTD=
EXTT0=
EXTT1=
EXTT2=
EXTT3=
EXTT4=
EXTT5=
EXTT6=
EXTT7=
EXTT8=
EXTT9=
EXTT10=
EXTT11=
EXTT12=
PLAYORDER=
